<svg xmlns="http://www.w3.org/2000/svg" viewBox="0 0 64 64"><path d="M57.836,29.839a1.006,1.006,0,0,0-.528-.5l-1.959-.792-4.414-7.309a1,1,0,0,0-.361-.351L43.72,16.971A1,1,0,0,0,42.68,17L35.2,21.843,32.643,18.51a1,1,0,0,0-1.1-.343l-8.512,2.711a1.009,1.009,0,0,0-.374.218L17.8,25.577l-1.139-.911a1,1,0,0,0-1.073-.113L4.773,29.976a1,1,0,0,0-.531.7L2.021,41.593a1,1,0,0,0,.278.912l4.444,4.369a1,1,0,0,0,.7.287H55.8a1,1,0,0,0,.814-.42l5.2-7.307a1,1,0,0,0,.089-1.008Zm-14.58-10.83,6.1,3.486,2.9,4.8-4.817-1.949a.991.991,0,0,0-.875.062l-6.709,3.877V26.275a1,1,0,0,0-.455-.838l-2.87-1.865-.105-.138ZM41.994,45.161H26.827L24.306,38.2l1.225-5.03,9.812-3.019,3.012,1.739h0l5.277,3.046ZM23.853,22.717l7.631-2.431,3.565,4.64a.983.983,0,0,0,.248.229l2.558,1.663v2.47L35.965,28.2a1,1,0,0,0-.794-.089L24.905,31.265l-5.53-4.424Zm-16,22.444-3.766-3.7L6.1,31.546l9.8-4.918,7.664,6.131-1.28,5.256a1,1,0,0,0,.031.577L24.7,45.161Zm47.433,0H44.02l1.7-10.593a1,1,0,0,0-.488-1.024l-4.374-2.525,6.287-3.633L56.2,31.048l3.65,7.7Z"/></svg>